<?xml version="1.0" encoding="utf-8"?><!-- Uploaded to: SVG Repo, www.svgrepo.com, Generator: SVG Repo Mixer Tools -->
<svg fill="#000000" width="800px" height="800px" viewBox="0 0 30 30" xmlns="http://www.w3.org/2000/svg"><path d="M5.5 5c-.655 0-.66 1.01 0 1h22c.286 0 .5.214.5.5v13c0 .66 1 .66 1 0v-13c0-.822-.678-1.5-1.5-1.5h-22zm-2 2c-.654 0-.654 1 0 1h22c.286 0 .5.214.5.5v13c0 .665 1.01.66 1 0v-13c0-.822-.678-1.5-1.5-1.5h-22zm-2 2C.678 9 0 9.678 0 10.5v12c0 .822.678 1.5 1.5 1.5h22c.822 0 1.5-.678 1.5-1.5v-12c0-.822-.678-1.5-1.5-1.5h-22zm0 1h22c.286 0 .5.214.5.5v12c0 .286-.214.5-.5.5h-22c-.286 0-.5-.214-.5-.5v-12c0-.286.214-.5.5-.5zm1 1c-.276 0-.5.224-.5.5v2c0 .672 1 .656 1 0V12h1.5c.672 0 .656-1 0-1h-2zm10 0C9.468 11 7 13.468 7 16.5S9.468 22 12.5 22s5.5-2.468 5.5-5.5-2.468-5.5-5.5-5.5zm8 0c-.656 0-.672 1 0 1H22v1.5c0 .656 1 .672 1 0v-2c0-.276-.224-.5-.5-.5h-2zm-8 1c2.49 0 4.5 2.01 4.5 4.5S14.99 21 12.5 21 8 18.99 8 16.5s2.01-4.5 4.5-4.5zm0 1c-.277 0-.5.223-.5.5v.594c-.578.21-1 .76-1 1.406 0 .82.68 1.5 1.5 1.5.28 0 .5.212.5.5 0 .288-.22.5-.5.5h-1c-.338-.005-.5.248-.5.5s.162.505.5.5h.5v.5c0 .277.223.5.5.5s.5-.223.5-.5v-.594c.578-.21 1-.76 1-1.406 0-.82-.68-1.5-1.5-1.5-.28 0-.5-.212-.5-.5 0-.288.22-.5.5-.5h1c.338.005.5-.248.5-.5s-.162-.505-.5-.5H13v-.5c0-.277-.223-.5-.5-.5zm-10 6.002c-.25-.002-.5.162-.5.498v2c0 .276.224.5.5.5h2c.656 0 .672-1 0-1H3v-1.5c0-.328-.25-.496-.5-.498zm20 0c-.25.002-.5.17-.5.498V21h-1.5c-.672 0-.656 1 0 1h2c.276 0 .5-.224.5-.5v-2c0-.336-.25-.5-.5-.498z"/></svg>