<svg xmlns="http://www.w3.org/2000/svg" xmlns:xlink="http://www.w3.org/1999/xlink" width="1000" zoomAndPan="magnify" viewBox="0 0 750 187.499995" height="250" preserveAspectRatio="xMidYMid meet" version="1.0"><defs><g/><clipPath id="b67a085ff7"><path d="M 2 3 L 118 3 L 118 142.191406 L 2 142.191406 Z M 2 3 " clip-rule="nonzero"/></clipPath></defs><g clip-path="url(#b67a085ff7)"><path fill="#31e78c" d="M 114.445312 7.894531 C 108.6875 1.210938 98.085938 1.761719 93.074219 9.007812 C 69.570312 43 50.089844 60.71875 50.089844 60.71875 C 42.914062 50.328125 32.136719 41.78125 23.363281 35.933594 C 16.085938 31.085938 6.136719 34.390625 3.285156 42.605469 L 3.253906 42.699219 C 1.03125 49.089844 4.0625 56.0625 10.21875 58.972656 C 44.238281 75.046875 49.582031 142.183594 49.582031 142.183594 C 62.917969 87.914062 98.417969 43.28125 114.3125 25.355469 C 118.730469 20.375 118.789062 12.9375 114.445312 7.894531 Z M 57.980469 43.625 C 66.308594 39.597656 69.765625 29.648438 65.699219 21.402344 C 61.632812 13.152344 51.582031 9.734375 43.253906 13.761719 C 34.921875 17.785156 31.464844 27.734375 35.53125 35.980469 C 39.597656 44.226562 49.648438 47.648438 57.980469 43.625 " fill-opacity="1" fill-rule="nonzero"/></g><g fill="#000000" fill-opacity="1"><g transform="translate(127.932862, 110.520812)"><g><path d="M 82.765625 0 L 67.28125 0 L 67.1875 -44.890625 L 50.609375 -6.90625 L 39.171875 -6.90625 L 22.59375 -44.890625 L 22.59375 0 L 6.90625 0 L 6.90625 -69.15625 L 26.140625 -69.15625 L 44.890625 -28.015625 L 63.640625 -69.15625 L 82.765625 -69.15625 Z M 82.765625 0 "/></g></g></g><g fill="#000000" fill-opacity="1"><g transform="translate(217.687218, 110.520812)"><g><path d="M 60.96875 -55.25 L 24.46875 -55.25 L 24.46875 -41.53125 L 57.421875 -41.53125 L 57.421875 -27.71875 L 24.46875 -27.71875 L 24.46875 -13.8125 L 62.0625 -13.8125 L 62.0625 0 L 6.90625 0 L 6.90625 -69.0625 L 60.96875 -69.0625 Z M 60.96875 -55.25 "/></g></g></g><g fill="#000000" fill-opacity="1"><g transform="translate(284.16462, 110.520812)"><g><path d="M 6.90625 -69.0625 L 36.59375 -69.0625 C 47.445312 -69.0625 56.273438 -65.867188 63.078125 -59.484375 C 69.890625 -53.109375 73.296875 -44.789062 73.296875 -34.53125 C 73.296875 -24.332031 69.84375 -16.023438 62.9375 -9.609375 C 56.03125 -3.203125 47.019531 0 35.90625 0 L 6.90625 0 Z M 24.46875 -55.046875 L 24.46875 -14.015625 L 37 -14.015625 C 42.382812 -14.015625 46.800781 -15.90625 50.25 -19.6875 C 53.707031 -23.46875 55.4375 -28.378906 55.4375 -34.421875 C 55.4375 -40.472656 53.628906 -45.421875 50.015625 -49.265625 C 46.398438 -53.117188 41.796875 -55.046875 36.203125 -55.046875 Z M 24.46875 -55.046875 "/></g></g></g><g fill="#000000" fill-opacity="1"><g transform="translate(359.81472, 110.520812)"><g><path d="M 24.46875 0 L 6.90625 0 L 6.90625 -69.0625 L 24.46875 -69.0625 Z M 24.46875 0 "/></g></g></g><g fill="#000000" fill-opacity="1"><g transform="translate(391.179429, 110.520812)"><g><path d="M 59.6875 -54.953125 L 38.875 -54.953125 L 38.875 0 L 21.3125 0 L 21.3125 -54.953125 L 0.6875 -54.953125 L 0.6875 -69.15625 L 59.6875 -69.15625 Z M 59.6875 -54.953125 "/></g></g></g><g fill="#000000" fill-opacity="1"><g transform="translate(451.443068, 110.520812)"><g><path d="M 48.53125 0 L 38.28125 -19.4375 L 24.46875 -19.4375 L 24.46875 0 L 6.90625 0 L 6.90625 -69.0625 L 37.78125 -69.0625 C 46.925781 -69.0625 54 -66.972656 59 -62.796875 C 64 -58.617188 66.5 -52.679688 66.5 -44.984375 C 66.5 -34.328125 62.320312 -26.929688 53.96875 -22.796875 L 68.46875 0 Z M 24.46875 -33.25 L 37.78125 -33.25 C 41.59375 -33.25 44.550781 -34.203125 46.65625 -36.109375 C 48.769531 -38.015625 49.828125 -40.773438 49.828125 -44.390625 C 49.828125 -47.941406 48.769531 -50.640625 46.65625 -52.484375 C 44.550781 -54.328125 41.59375 -55.25 37.78125 -55.25 L 24.46875 -55.25 Z M 24.46875 -33.25 "/></g></g></g><g fill="#000000" fill-opacity="1"><g transform="translate(522.852028, 110.520812)"><g><path d="M 52.78125 -12.734375 L 22.59375 -12.734375 L 17.5625 0 L -0.5 0 L 29.296875 -69.0625 L 47.359375 -69.0625 L 76.453125 0 L 57.71875 0 Z M 47.65625 -26.046875 L 37.78125 -51.59375 L 27.71875 -26.046875 Z M 47.65625 -26.046875 "/></g></g></g><g fill="#000000" fill-opacity="1"><g transform="translate(598.798021, 110.520812)"><g><path d="M 6.90625 -69.0625 L 36.59375 -69.0625 C 47.445312 -69.0625 56.273438 -65.867188 63.078125 -59.484375 C 69.890625 -53.109375 73.296875 -44.789062 73.296875 -34.53125 C 73.296875 -24.332031 69.84375 -16.023438 62.9375 -9.609375 C 56.03125 -3.203125 47.019531 0 35.90625 0 L 6.90625 0 Z M 24.46875 -55.046875 L 24.46875 -14.015625 L 37 -14.015625 C 42.382812 -14.015625 46.800781 -15.90625 50.25 -19.6875 C 53.707031 -23.46875 55.4375 -28.378906 55.4375 -34.421875 C 55.4375 -40.472656 53.628906 -45.421875 50.015625 -49.265625 C 46.398438 -53.117188 41.796875 -55.046875 36.203125 -55.046875 Z M 24.46875 -55.046875 "/></g></g></g><g fill="#000000" fill-opacity="1"><g transform="translate(674.448121, 110.520812)"><g><path d="M 60.96875 -55.25 L 24.46875 -55.25 L 24.46875 -41.53125 L 57.421875 -41.53125 L 57.421875 -27.71875 L 24.46875 -27.71875 L 24.46875 -13.8125 L 62.0625 -13.8125 L 62.0625 0 L 6.90625 0 L 6.90625 -69.0625 L 60.96875 -69.0625 Z M 60.96875 -55.25 "/></g></g></g></svg>