<?xml version="1.0" encoding="utf-8"?><!-- Uploaded to: SVG Repo, www.svgrepo.com, Generator: SVG Repo Mixer Tools -->
<svg width="800px" height="800px" viewBox="0 0 24 24" fill="none" xmlns="http://www.w3.org/2000/svg">
<rect width="24" height="24" fill="white"/>
<path fill-rule="evenodd" clip-rule="evenodd" d="M22 12.9342C22 12.956 22 12.978 22 13L22 15C22 15.022 22 15.044 22 15.0658C22 15.9523 22.0001 16.7161 21.9179 17.3278C21.8297 17.9833 21.631 18.6117 21.1213 19.1213C20.6117 19.631 19.9833 19.8297 19.3278 19.9179C18.7161 20.0001 17.9523 20.0001 17.0658 20L10.9342 20C10.0477 20.0001 9.28386 20.0001 8.6722 19.9179C8.01669 19.8297 7.38834 19.631 6.87867 19.1213C6.36901 18.6117 6.17027 17.9833 6.08214 17.3278C5.9999 16.7161 5.99994 15.9523 5.99999 15.0658L5.99999 12.9342C5.99994 12.0477 5.9999 11.2839 6.08214 10.6722C6.17027 10.0167 6.36901 9.38835 6.87867 8.87868C7.38834 8.36902 8.01669 8.17028 8.6722 8.08214C9.28386 7.99991 10.0477 7.99995 10.9342 8L17 8C17.022 8 17.044 8 17.0658 8C17.9523 7.99995 18.7161 7.99991 19.3278 8.08215C19.9833 8.17028 20.6117 8.36902 21.1213 8.87868C21.631 9.38835 21.8297 10.0167 21.9179 10.6722C22.0001 11.2839 22 12.0477 22 12.9342ZM11 14C11 12.3431 12.3432 11 14 11C15.6569 11 17 12.3431 17 14C17 15.6569 15.6569 17 14 17C12.3432 17 11 15.6569 11 14Z" fill="#323232"/>
<path d="M17.9965 7.00391C17.7103 6.99994 17.4161 6.99997 17.1189 7.00001L10.8813 7.00001C10.0376 6.99992 9.21767 6.99983 8.53906 7.09107C7.77331 7.19402 6.89841 7.44484 6.17167 8.17158C5.44493 8.89832 5.19411 9.77323 5.09116 10.539C4.99992 11.2176 5 12.0375 5.00009 12.8813V15.1187C5.00006 15.4118 5.00003 15.702 5.00383 15.9844C4.93907 15.9812 4.87645 15.9774 4.81603 15.9727C4.44281 15.9439 4.07084 15.8804 3.70949 15.7082C3.08831 15.4122 2.58777 14.9117 2.29177 14.2905C2.11957 13.9291 2.05608 13.5572 2.02728 13.184C1.99998 12.8301 1.99999 12.4011 2.00001 11.9039L2 8.93415C1.99995 8.04768 1.99991 7.28385 2.08215 6.67219C2.17028 6.01668 2.36902 5.38833 2.87869 4.87866C3.38835 4.369 4.0167 4.17026 4.67221 4.08213C5.28387 3.99989 6.04769 3.99993 6.93418 3.99998L14.539 3.99993C14.9608 3.99956 15.3242 3.99924 15.6475 4.07069C16.7872 4.32262 17.6774 5.21276 17.9293 6.35249C17.9736 6.55277 17.9903 6.76846 17.9965 7.00391Z" fill="#323232"/>
</svg>