<?xml version="1.0" encoding="utf-8"?><svg version="1.1" id="Layer_1" xmlns="http://www.w3.org/2000/svg" xmlns:xlink="http://www.w3.org/1999/xlink" x="0px" y="0px" viewBox="0 0 121.52 122.88" style="enable-background:new 0 0 121.52 122.88" xml:space="preserve"><style type="text/css">.st0{fill-rule:evenodd;clip-rule:evenodd;}</style><g><path class="st0" d="M49.91,26.09l53.86-13.45c1.52-0.38,3.08,0.56,3.46,2.08l13.45,53.86c0.38,1.52-0.56,3.08-2.08,3.46 L64.75,85.49c-1.52,0.38-3.08-0.56-3.46-2.08L47.83,29.55C47.45,28.03,48.39,26.47,49.91,26.09L49.91,26.09L49.91,26.09z M54.59,90.54c8.93,0,16.17,7.24,16.17,16.17c0,8.93-7.24,16.17-16.17,16.17c-8.93,0-16.17-7.24-16.17-16.17 C38.42,97.78,45.66,90.54,54.59,90.54L54.59,90.54z M74,92.69l41.87-11.22l2.51-0.67l0.67,2.51l1.8,6.72l0.67,2.51l-2.51,0.67 l-41.87,11.22l-2.51,0.67l-0.67-2.51l-1.8-6.72l-0.67-2.51L74,92.69L74,92.69L74,92.69z M4.21,0.04l8.34,1.45 c9.58,1.67,14.41,2.63,17.54,5.12c3.37,2.68,4.13,6.28,5.59,13.26c0.27,1.27,0.56,2.69,0.96,4.4c0.36,1.58,0.82,3.43,1.42,5.64 l14.87,54.67c0.38,1.39-0.44,2.81-1.83,3.19c-0.04,0.01-0.08,0.02-0.12,0.03l-6.61,1.79c-1.38,0.37-2.81-0.45-3.18-1.83l0,0 l-6.76-24.85l-8.11-29.82c-0.56-2.08-1.05-4.08-1.47-5.94l-0.02-0.12c-0.41-1.8-0.73-3.33-1.02-4.7c-0.73-3.47-1.1-5.27-2.23-6.08 c-1.47-1.07-4.67-1.67-11.06-2.79l-3.23-0.56l-5.11-0.89c-1.42-0.24-2.37-1.58-2.12-3l1.17-6.86C1.45,0.75,2.79-0.2,4.21,0.04 L4.21,0.04z"/></g></svg>